<svg width="270.000000" height="120.000000" viewBox="0 0 270 120" fill="none" xmlns="http://www.w3.org/2000/svg" xmlns:xlink="http://www.w3.org/1999/xlink">
	<desc>
			Created with Pixso.
	</desc>
	<defs>
		<clipPath id="clip11_2400">
			<rect id="antenna 1" width="70.000000" height="70.000000" transform="translate(100.000000 25.000000)" fill="white" fill-opacity="0"/>
		</clipPath>
	</defs>
	<rect id="Rectangle 3" rx="4.000000" width="270.000000" height="120.000000" fill="#F5F4FA" fill-opacity="1.000000"/>
	<rect id="antenna 1" width="70.000000" height="70.000000" transform="translate(100.000000 25.000000)" fill="#FFFFFF" fill-opacity="0"/>
	<g clip-path="url(#clip11_2400)">
		<path id="Vector" d="M167.31 73.33L148.84 54.73L150.89 44.63C151.42 44.84 151.98 44.95 152.55 44.95L152.57 44.95C155.17 44.98 157.31 42.89 157.34 40.28C157.37 37.68 155.28 35.54 152.68 35.51C150.07 35.48 147.93 37.56 147.9 40.17C147.89 40.73 147.98 41.29 148.17 41.81L137.32 43.14L119.62 25.35C119.41 25.12 119.11 25 118.8 25C118.49 25 118.2 25.12 117.98 25.33L114.67 28.62C114.22 29.08 114.22 29.82 114.67 30.27L116.45 32.08C109.56 44.76 111.8 60.47 121.97 70.72C122.06 70.81 122.17 70.88 122.29 70.93C122.21 71.33 122.17 71.73 122.17 72.13L122.17 85.66L108.17 85.66C104.95 85.67 102.34 88.28 102.34 91.5L102.34 93.83C102.34 94.47 102.86 95 103.5 95L157.17 95C157.82 95 158.34 94.47 158.34 93.83L158.34 91.5C158.33 88.28 155.72 85.67 152.5 85.66L138.5 85.66L138.5 79.66C140.7 80.12 142.93 80.36 145.17 80.36C150.55 80.36 155.84 79.02 160.57 76.46L162.36 78.26C162.58 78.48 162.88 78.61 163.19 78.61C163.49 78.61 163.79 78.49 164 78.27L167.31 74.98C167.77 74.53 167.77 73.79 167.31 73.33ZM150.92 38.63C151.83 37.72 153.31 37.73 154.22 38.64C155.13 39.55 155.12 41.03 154.21 41.94C153.77 42.37 153.18 42.62 152.56 42.62L152.56 42.62C151.27 42.61 150.23 41.56 150.24 40.27C150.24 39.66 150.49 39.06 150.92 38.63L150.92 38.63ZM148.17 46.3L146.86 52.74L144.29 50.15L148.17 46.3ZM146.85 44.32L142.65 48.5L139.4 45.23L146.85 44.32ZM152.5 88C154.44 88 156 89.56 156 91.5L156 92.66L104.67 92.66L104.67 91.5C104.67 89.56 106.24 88 108.17 88L152.5 88ZM136.17 83.33L136.17 85.66L124.5 85.66L124.5 83.33L136.17 83.33ZM124.5 81L124.5 72.13C124.5 69.3 127.12 67 130.34 67C133.55 67 136.17 69.3 136.17 72.13L136.17 81L124.5 81ZM138.5 77.29L138.5 72.13C138.5 68.01 134.84 64.66 130.34 64.66C127.43 64.62 124.7 66.1 123.16 68.57C114.28 59.22 112.29 45.28 118.18 33.82L158.87 74.74C152.58 77.94 145.38 78.84 138.5 77.29ZM163.2 75.79L161.56 74.14L118.79 31.11L117.14 29.46L118.79 27.81L136.14 45.27C136.15 45.27 136.16 45.28 136.17 45.29L164.85 74.14L163.2 75.79Z" fill="#212121" fill-opacity="1.000000" fill-rule="nonzero"/>
		<path id="Vector" d="M130.35 69.33L130.34 69.33C128.4 69.33 126.84 70.89 126.83 72.82C126.83 74.76 128.39 76.33 130.33 76.33L130.34 76.33C132.27 76.33 133.84 74.77 133.84 72.83C133.85 70.9 132.28 69.33 130.35 69.33ZM131.16 73.66C130.95 73.87 130.65 74 130.34 74C129.69 73.99 129.17 73.47 129.18 72.82C129.18 72.51 129.3 72.22 129.52 72C129.74 71.79 130.03 71.66 130.34 71.66C130.98 71.67 131.5 72.19 131.5 72.83C131.5 73.14 131.37 73.44 131.15 73.66L131.16 73.66Z" fill="#2196F3" fill-opacity="1.000000" fill-rule="nonzero"/>
	</g>
</svg>
