<svg width="270.000000" height="120.000000" viewBox="0 0 270 120" fill="none" xmlns="http://www.w3.org/2000/svg" xmlns:xlink="http://www.w3.org/1999/xlink">
	<desc>
			Created with Pixso.
	</desc>
	<defs>
		<clipPath id="clip11_2432">
			<rect id="astronaut 1" width="70.000000" height="70.000000" transform="translate(100.000000 25.000000)" fill="white" fill-opacity="0"/>
		</clipPath>
	</defs>
	<rect id="Rectangle 4" rx="4.000000" width="270.000000" height="120.000000" fill="#F5F4FA" fill-opacity="1.000000"/>
	<rect id="astronaut 1" width="70.000000" height="70.000000" transform="translate(100.000000 25.000000)" fill="#FFFFFF" fill-opacity="0"/>
	<g clip-path="url(#clip11_2432)">
		<path id="Vector" d="M169.94 34.89C169.8 34.47 169.44 34.16 169 34.1L164.82 33.49L162.95 29.7C162.56 28.91 161.25 28.91 160.86 29.7L158.99 33.49L154.81 34.1C154.37 34.16 154 34.47 153.86 34.89C153.73 35.31 153.84 35.78 154.16 36.09L157.18 39.04L156.47 43.2C156.39 43.64 156.58 44.08 156.93 44.34C157.3 44.6 157.77 44.64 158.16 44.43L161.9 42.46L165.64 44.43C165.81 44.52 166 44.56 166.18 44.56C166.42 44.56 166.67 44.49 166.87 44.34C167.23 44.08 167.41 43.64 167.33 43.2L166.62 39.04L169.64 36.09C169.96 35.78 170.08 35.31 169.94 34.89ZM164.55 37.79C164.28 38.06 164.15 38.45 164.22 38.83L164.63 41.26L162.45 40.11C162.27 40.02 162.09 39.98 161.9 39.98C161.71 39.98 161.53 40.02 161.36 40.11L159.17 41.26L159.59 38.83C159.65 38.45 159.53 38.06 159.25 37.79L157.48 36.07L159.93 35.71C160.31 35.66 160.64 35.42 160.81 35.07L161.9 32.86L162.99 35.07C163.16 35.42 163.49 35.66 163.87 35.71L166.32 36.07L164.55 37.79Z" fill="#2196F3" fill-opacity="1.000000" fill-rule="nonzero"/>
		<path id="Vector" d="M154.83 69.89L157.16 69.89L157.16 72.22L154.83 72.22L154.83 69.89Z" fill="#2196F3" fill-opacity="1.000000" fill-rule="evenodd"/>
		<path id="Vector" d="M154.83 74.55L157.16 74.55L157.16 76.89L154.83 76.89L154.83 74.55Z" fill="#2196F3" fill-opacity="1.000000" fill-rule="evenodd"/>
		<path id="Vector" d="M157.16 72.22L159.5 72.22L159.5 74.55L157.16 74.55L157.16 72.22Z" fill="#2196F3" fill-opacity="1.000000" fill-rule="evenodd"/>
		<path id="Vector" d="M152.5 72.22L154.83 72.22L154.83 74.55L152.5 74.55L152.5 72.22Z" fill="#2196F3" fill-opacity="1.000000" fill-rule="evenodd"/>
		<path id="Vector" d="M146.66 82.72L149 82.72L149 85.05L146.66 85.05L146.66 82.72Z" fill="#2196F3" fill-opacity="1.000000" fill-rule="evenodd"/>
		<path id="Vector" d="M146.66 87.39L149 87.39L149 89.72L146.66 89.72L146.66 87.39Z" fill="#2196F3" fill-opacity="1.000000" fill-rule="evenodd"/>
		<path id="Vector" d="M149 85.05L151.33 85.05L151.33 87.39L149 87.39L149 85.05Z" fill="#2196F3" fill-opacity="1.000000" fill-rule="evenodd"/>
		<path id="Vector" d="M144.33 85.05L146.66 85.05L146.66 87.39L144.33 87.39L144.33 85.05Z" fill="#2196F3" fill-opacity="1.000000" fill-rule="evenodd"/>
		<path id="Vector" d="M132.66 78.05L135 78.05L135 80.39L132.66 80.39L132.66 78.05Z" fill="#2196F3" fill-opacity="1.000000" fill-rule="evenodd"/>
		<path id="Vector" d="M132.66 82.72L135 82.72L135 85.05L132.66 85.05L132.66 82.72Z" fill="#2196F3" fill-opacity="1.000000" fill-rule="evenodd"/>
		<path id="Vector" d="M135 80.39L137.33 80.39L137.33 82.72L135 82.72L135 80.39Z" fill="#2196F3" fill-opacity="1.000000" fill-rule="evenodd"/>
		<path id="Vector" d="M130.33 80.39L132.66 80.39L132.66 82.72L130.33 82.72L130.33 80.39Z" fill="#2196F3" fill-opacity="1.000000" fill-rule="evenodd"/>
		<path id="Vector" d="M110.5 38.39L112.83 38.39L112.83 40.72L110.5 40.72L110.5 38.39Z" fill="#2196F3" fill-opacity="1.000000" fill-rule="evenodd"/>
		<path id="Vector" d="M110.5 43.05L112.83 43.05L112.83 45.39L110.5 45.39L110.5 43.05Z" fill="#2196F3" fill-opacity="1.000000" fill-rule="evenodd"/>
		<path id="Vector" d="M112.83 40.72L115.16 40.72L115.16 43.05L112.83 43.05L112.83 40.72Z" fill="#2196F3" fill-opacity="1.000000" fill-rule="evenodd"/>
		<path id="Vector" d="M108.16 40.72L110.5 40.72L110.5 43.05L108.16 43.05L108.16 40.72Z" fill="#2196F3" fill-opacity="1.000000" fill-rule="evenodd"/>
		<path id="Vector" d="M154.06 55.97C153.43 55.12 152.51 54.57 151.46 54.43C150.41 54.28 149.37 54.55 148.53 55.2L145.79 57.3L145.79 57.3L141.64 60.4L138.67 59.21C143.96 56.84 147.67 51.54 147.67 45.39C147.67 37.03 140.84 30.22 132.44 30.22C124.04 30.22 117.21 37.03 117.21 45.39C117.21 48.42 118.12 51.24 119.66 53.61L113.62 53.56C113.61 53.56 113.61 53.56 113.61 53.56C113.59 53.56 113.57 53.57 113.55 53.57C113.44 53.57 113.33 53.6 113.21 53.64C113.19 53.65 113.16 53.65 113.13 53.67C113.12 53.67 113.1 53.67 113.09 53.68L106.02 57.17C106.02 57.17 106.01 57.17 106.01 57.17L101.87 59.16C101.83 59.18 101.78 59.21 101.73 59.24C100.08 60.34 99.52 62.5 100.43 64.26C100.91 65.2 101.73 65.89 102.74 66.21C103.12 66.33 103.52 66.39 103.91 66.39C104.55 66.39 105.18 66.23 105.75 65.93L108.79 64.31L113.74 61.75L116.71 61.74L104.8 73.58C104.8 73.58 104.8 73.58 104.8 73.59L101.87 76.5C101.18 77.19 100.8 78.1 100.8 79.08C100.8 80.05 101.18 80.97 101.87 81.66C102.58 82.36 103.52 82.72 104.45 82.72C105.39 82.72 106.32 82.36 107.03 81.66L109.91 78.79L113.72 75.95L115.69 77.91L111.83 81.75C111.83 81.75 111.83 81.75 111.83 81.75L108.9 84.67C108.21 85.36 107.83 86.27 107.83 87.25C107.83 88.22 108.21 89.13 108.9 89.82C109.61 90.53 110.55 90.89 111.48 90.89C112.42 90.89 113.35 90.53 114.06 89.82L116.99 86.91L121.68 82.24C121.68 82.24 121.68 82.24 121.68 82.24L123.89 80.05L123.88 80.04C123.9 80.03 123.92 80.02 123.93 80.01L135.23 67.63L142.82 68.71C142.88 68.72 142.93 68.72 142.99 68.72C143.13 68.72 143.27 68.69 143.4 68.64C143.44 68.62 143.47 68.61 143.51 68.59C143.55 68.57 143.59 68.55 143.63 68.53L150.66 63.86C150.69 63.84 150.7 63.82 150.73 63.8C150.75 63.77 150.79 63.77 150.81 63.74L153.6 61.14C155.04 59.78 155.24 57.56 154.06 55.97ZM104.66 63.87C104.28 64.07 103.85 64.11 103.43 63.98C103.03 63.85 102.69 63.57 102.5 63.2C102.15 62.51 102.35 61.68 102.97 61.22L105.84 59.84L106.54 61.86L106.83 62.71L104.66 63.87ZM112.31 59.87L108.92 61.62L108.36 59.99L107.96 58.81L112.39 56.62L112.31 59.87ZM145.34 45.39C145.34 47.4 144.86 49.29 144.03 50.99L134.88 46.83C134.78 45.58 134.13 44.48 133.15 43.8L136.36 33.16C141.56 34.82 145.34 39.67 145.34 45.39ZM119.55 45.39C119.55 38.31 125.33 32.55 132.44 32.55C132.99 32.55 133.53 32.6 134.07 32.67L130.94 43.07C130.9 43.07 130.86 43.05 130.81 43.05C128.56 43.05 126.72 44.89 126.72 47.14C126.72 49.39 128.56 51.22 130.81 51.22C132.33 51.22 133.64 50.38 134.35 49.15L142.8 52.99C140.45 56.16 136.69 58.22 132.44 58.22C125.33 58.22 119.55 52.46 119.55 45.39ZM132.58 47.14C132.58 48.1 131.78 48.89 130.81 48.89C129.84 48.89 129.05 48.1 129.05 47.14C129.05 46.17 129.84 45.39 130.81 45.39C131.78 45.39 132.58 46.17 132.58 47.14ZM105.39 80C104.87 80.51 104.03 80.51 103.52 80C103.27 79.76 103.13 79.43 103.13 79.08C103.13 78.73 103.27 78.4 103.52 78.16L105.62 76.06L107.48 77.91L105.39 80ZM112.42 88.17C111.9 88.68 111.06 88.68 110.55 88.17C110.3 87.92 110.16 87.59 110.16 87.25C110.16 86.9 110.3 86.57 110.55 86.32L112.65 84.23L113.53 85.1L114.52 86.08L112.42 88.17ZM120.03 80.58C120.03 80.58 120.03 80.58 120.03 80.58L116.17 84.43L115.29 83.56L114.31 82.58L118.16 78.74C118.16 78.74 118.16 78.74 118.16 78.74C118.16 78.74 118.17 78.74 118.17 78.74C118.25 78.65 118.31 78.54 118.36 78.44C118.38 78.41 118.41 78.38 118.42 78.35C118.46 78.26 118.46 78.17 118.48 78.07C118.48 78.02 118.51 77.97 118.51 77.91C118.51 77.83 118.48 77.76 118.46 77.68C118.45 77.61 118.45 77.54 118.42 77.47C118.38 77.36 118.3 77.27 118.22 77.17C118.2 77.15 118.19 77.11 118.17 77.09C118.17 77.09 118.17 77.09 118.17 77.09C118.16 77.09 118.16 77.09 118.16 77.08L114.65 73.58C114.61 73.55 114.56 73.53 114.52 73.5C114.46 73.45 114.4 73.41 114.33 73.37C114.26 73.34 114.2 73.32 114.13 73.3C114.05 73.28 113.98 73.27 113.9 73.26C113.83 73.26 113.76 73.26 113.69 73.27C113.61 73.28 113.54 73.29 113.47 73.31C113.39 73.34 113.33 73.37 113.26 73.41C113.22 73.44 113.17 73.45 113.13 73.48L109.25 76.37L107.28 74.41L112.52 69.19L122.06 78.57L120.03 80.58ZM134.95 65.23C134.92 65.23 134.88 65.24 134.85 65.24C134.77 65.23 134.68 65.24 134.6 65.25C134.53 65.26 134.47 65.28 134.41 65.3C134.33 65.33 134.26 65.36 134.2 65.4C134.13 65.44 134.07 65.48 134.01 65.54C133.99 65.56 133.95 65.57 133.92 65.6L123.65 76.86L114.18 67.55L120.38 61.38C120.83 60.93 120.84 60.19 120.38 59.73C120.15 59.5 119.85 59.39 119.55 59.39L119.55 59.39L114.69 59.42L114.75 55.9L121.54 55.96C124.31 58.79 128.17 60.55 132.44 60.55C133.4 60.55 134.33 60.45 135.24 60.29C135.33 60.36 135.41 60.43 135.52 60.47L140.8 62.57L141.13 64.23L141.52 66.17L134.95 65.23ZM143.79 65.62L143.11 62.21L146.27 59.85L147.1 60.95L148.34 62.6L143.79 65.62ZM152 59.43L150.17 61.15L148.13 58.44L149.95 57.05C150.29 56.79 150.72 56.68 151.14 56.74C151.56 56.79 151.93 57.02 152.19 57.36C152.66 58 152.58 58.89 152 59.43Z" fill="#212121" fill-opacity="1.000000" fill-rule="nonzero"/>
		<path id="Vector" d="M129.75 65.56L125.06 60.89C124.61 60.44 123.87 60.44 123.42 60.89L118.73 65.56C118.51 65.78 118.39 66.08 118.39 66.39C118.39 66.7 118.51 67 118.73 67.21L123.42 71.88C123.64 72.11 123.94 72.22 124.24 72.22C124.54 72.22 124.84 72.11 125.06 71.88L129.75 67.21C129.97 67 130.09 66.7 130.09 66.39C130.09 66.08 129.97 65.78 129.75 65.56ZM124.24 69.41L121.21 66.39L124.24 63.37L127.27 66.39L124.24 69.41Z" fill="#212121" fill-opacity="1.000000" fill-rule="nonzero"/>
		<path id="Vector" d="M137.54 36.09L136.98 38.35C137.13 38.39 140.78 39.34 140.78 43.05L143.11 43.05C143.11 38.64 139.47 36.57 137.54 36.09Z" fill="#212121" fill-opacity="1.000000" fill-rule="nonzero"/>
		<path id="Vector" d="M140.78 45.39L143.11 45.39L143.11 47.72L140.78 47.72L140.78 45.39Z" fill="#212121" fill-opacity="1.000000" fill-rule="evenodd"/>
	</g>
</svg>
