<svg width="270.000000" height="120.000000" viewBox="0 0 270 120" fill="none" xmlns="http://www.w3.org/2000/svg" xmlns:xlink="http://www.w3.org/1999/xlink">
	<desc>
			Created with Pixso.
	</desc>
	<defs>
		<clipPath id="clip11_2411">
			<rect id="clock 1" width="70.000000" height="70.000000" transform="translate(100.000000 25.000000)" fill="white" fill-opacity="0"/>
		</clipPath>
	</defs>
	<rect id="Rectangle 2" rx="4.000000" width="270.000000" height="120.000000" fill="#F5F4FA" fill-opacity="1.000000"/>
	<rect id="clock 1" width="70.000000" height="70.000000" transform="translate(100.000000 25.000000)" fill="#FFFFFF" fill-opacity="0"/>
	<g clip-path="url(#clip11_2411)">
		<path id="Vector" d="M168.46 58.47C168.45 39.98 153.46 24.99 134.97 25C116.48 25 101.5 39.99 101.5 58.48C101.5 73.05 110.92 85.94 124.8 90.37C124.93 90.41 125.07 90.43 125.2 90.43C125.47 90.43 125.73 90.36 125.95 90.22C126.25 90.05 126.47 89.77 126.57 89.44L135.03 62.65C137.34 62.64 139.2 60.75 139.19 58.44C139.18 56.13 137.3 54.27 134.98 54.28C134.36 54.28 133.75 54.42 133.19 54.7L122.02 43.53C121.47 42.99 120.58 43.01 120.05 43.56C119.53 44.1 119.53 44.96 120.05 45.5L131.21 56.67C130.36 58.42 130.84 60.53 132.39 61.73L124.33 87.26C108.41 81.4 100.26 63.74 106.12 47.82C111.99 31.9 129.64 23.74 145.57 29.61C161.49 35.47 169.64 53.13 163.77 69.05C160.91 76.83 155.02 83.12 147.45 86.49L146.58 82.39C146.42 81.64 145.68 81.16 144.93 81.32C144.69 81.37 144.47 81.48 144.29 81.64L135.89 89.14C135.32 89.65 135.27 90.53 135.78 91.11C135.95 91.29 136.16 91.43 136.4 91.51L147.11 94.93C147.85 95.16 148.63 94.76 148.87 94.03C148.94 93.79 148.96 93.55 148.91 93.31L148.05 89.29C160.44 84.06 168.49 71.91 168.46 58.47ZM134.98 57.07C135.75 57.07 136.37 57.7 136.37 58.47C136.37 59.24 135.75 59.86 134.98 59.86C134.21 59.86 133.58 59.24 133.58 58.47C133.58 57.7 134.21 57.07 134.98 57.07ZM139.57 89.59L144.35 85.32L145.67 91.54L139.57 89.59Z" fill="#212121" fill-opacity="1.000000" fill-rule="nonzero"/>
		<path id="Vector" d="M133.58 31.96L133.58 34.75C133.58 35.52 134.21 36.15 134.98 36.15C135.75 36.15 136.37 35.52 136.37 34.75L136.37 31.96C136.37 31.19 135.75 30.57 134.98 30.57C134.21 30.57 133.58 31.19 133.58 31.96Z" fill="#2196F3" fill-opacity="1.000000" fill-rule="nonzero"/>
		<path id="Vector" d="M108.47 57.07C107.7 57.07 107.08 57.7 107.08 58.47C107.08 59.24 107.7 59.86 108.47 59.86L111.26 59.86C112.03 59.86 112.66 59.24 112.66 58.47C112.66 57.7 112.03 57.07 111.26 57.07L108.47 57.07Z" fill="#2196F3" fill-opacity="1.000000" fill-rule="nonzero"/>
		<path id="Vector" d="M161.48 59.86C162.25 59.86 162.88 59.24 162.88 58.47C162.88 57.7 162.25 57.07 161.48 57.07L158.69 57.07C157.92 57.07 157.3 57.7 157.3 58.47C157.3 59.24 157.92 59.86 158.69 59.86L161.48 59.86Z" fill="#2196F3" fill-opacity="1.000000" fill-rule="nonzero"/>
	</g>
</svg>
