<svg width="270.000000" height="120.000000" viewBox="0 0 270 120" fill="none" xmlns="http://www.w3.org/2000/svg" xmlns:xlink="http://www.w3.org/1999/xlink">
	<desc>
			Created with Pixso.
	</desc>
	<defs>
		<clipPath id="clip11_2421">
			<rect id="diagram 1" width="70.000000" height="70.000000" transform="translate(100.000000 25.000000)" fill="white" fill-opacity="0"/>
		</clipPath>
	</defs>
	<rect id="Rectangle 3" rx="4.000000" width="270.000000" height="120.000000" fill="#F5F4FA" fill-opacity="1.000000"/>
	<rect id="diagram 1" width="70.000000" height="70.000000" transform="translate(100.000000 25.000000)" fill="#FFFFFF" fill-opacity="0"/>
	<g clip-path="url(#clip11_2421)">
		<path id="Vector" d="M132.64 57.73L134.98 57.73L134.98 68.22L132.64 68.22L132.64 57.73Z" fill="#2196F3" fill-opacity="1.000000" fill-rule="nonzero"/>
		<path id="Vector" d="M141.97 62.39L144.31 62.39L144.31 68.22L141.97 68.22L141.97 62.39Z" fill="#2196F3" fill-opacity="1.000000" fill-rule="nonzero"/>
		<path id="Vector" d="M123.32 65.89L125.65 65.89L125.65 68.22L123.32 68.22L123.32 65.89Z" fill="#2196F3" fill-opacity="1.000000" fill-rule="nonzero"/>
		<path id="Vector" d="M116.32 64.73L118.65 64.73L118.65 68.22L116.32 68.22L116.32 64.73Z" fill="#2196F3" fill-opacity="1.000000" fill-rule="nonzero"/>
		<path id="Vector" d="M103.49 86.88L159.46 86.88C161.4 86.88 162.96 85.32 162.96 83.38L162.96 78.72C162.96 76.79 161.4 75.22 159.46 75.22L158.3 75.22L158.3 46.14L164.92 39.87C166.46 40.63 168.32 40.17 169.33 38.78C170.33 37.39 170.19 35.48 168.99 34.25C167.79 33.03 165.89 32.84 164.48 33.82C163.07 34.8 162.56 36.64 163.29 38.2L158.3 42.93L158.3 40.24C158.3 38.31 156.73 36.74 154.8 36.74L108.16 36.74C106.23 36.74 104.66 38.31 104.66 40.24L104.66 75.22L103.49 75.22C101.56 75.22 100 76.79 100 78.72L100 83.38C100 85.32 101.56 86.88 103.49 86.88ZM166.46 35.58C167.1 35.58 167.63 36.1 167.63 36.74C167.63 37.39 167.1 37.91 166.46 37.91C165.82 37.91 165.29 37.39 165.29 36.74C165.29 36.1 165.82 35.58 166.46 35.58ZM106.99 40.24C106.99 39.6 107.51 39.07 108.16 39.07L154.8 39.07C155.44 39.07 155.97 39.6 155.97 40.24L155.97 45.14L153.63 47.35L153.63 42.57C153.63 41.93 153.11 41.41 152.47 41.41L110.49 41.41C109.85 41.41 109.32 41.93 109.32 42.57L109.32 71.72C109.32 72.37 109.85 72.89 110.49 72.89L152.47 72.89C153.11 72.89 153.63 72.37 153.63 71.72L153.63 50.56L155.97 48.35L155.97 75.22L106.99 75.22L106.99 40.24ZM117.49 55.4C115.91 55.39 114.52 56.44 114.1 57.97C113.68 59.49 114.33 61.1 115.69 61.9C117.05 62.71 118.77 62.51 119.91 61.41L123.96 63.44C124.43 63.68 125 63.57 125.35 63.18L133.97 53.48L142.44 59.83C142.89 60.17 143.53 60.13 143.94 59.74L151.3 52.77L151.3 70.56L111.66 70.56L111.66 43.74L151.3 43.74L151.3 49.56L143.05 57.37L134.51 50.97C134.03 50.6 133.34 50.67 132.94 51.12L124.21 60.95L120.94 59.32C120.96 59.18 120.98 59.04 120.98 58.9C120.98 56.96 119.42 55.4 117.49 55.4ZM118.65 58.9C118.65 59.54 118.13 60.06 117.49 60.06C116.84 60.06 116.32 59.54 116.32 58.9C116.32 58.25 116.84 57.73 117.49 57.73C118.13 57.73 118.65 58.25 118.65 58.9ZM125.65 77.55L137.31 77.55L137.31 78.72C137.31 79.36 136.79 79.89 136.14 79.89L126.81 79.89C126.17 79.89 125.65 79.36 125.65 78.72L125.65 77.55ZM102.33 78.72C102.33 78.08 102.85 77.55 103.49 77.55L123.32 77.55L123.32 78.72C123.32 80.65 124.88 82.22 126.81 82.22L136.14 82.22C138.08 82.22 139.64 80.65 139.64 78.72L139.64 77.55L159.46 77.55C160.11 77.55 160.63 78.08 160.63 78.72L160.63 83.38C160.63 84.03 160.11 84.55 159.46 84.55L103.49 84.55C102.85 84.55 102.33 84.03 102.33 83.38L102.33 78.72Z" fill="#212121" fill-opacity="1.000000" fill-rule="nonzero"/>
	</g>
</svg>
